<?xml version="1.0" standalone="no"?>
<!DOCTYPE svg PUBLIC "-//W3C//DTD SVG 20010904//EN"
 "http://www.w3.org/TR/2001/REC-SVG-20010904/DTD/svg10.dtd">
<svg version="1.0" xmlns="http://www.w3.org/2000/svg"
 width="1024.000000pt" height="389.000000pt" viewBox="0 0 1024.000000 389.000000"
 preserveAspectRatio="xMidYMid meet">

<g transform="translate(0.000000,389.000000) scale(0.100000,-0.100000)"
fill="#2766ff" stroke="none">
<path d="M8640 3879 c-544 -40 -992 -234 -1325 -574 -328 -336 -503 -763 -522
-1275 -13 -371 53 -691 207 -997 274 -543 777 -891 1445 -998 153 -25 496 -30
695 -11 438 42 800 143 932 260 40 36 95 112 117 162 48 107 51 155 51 771 0
634 -2 658 -60 781 -35 76 -134 179 -207 216 -112 56 -111 56 -705 56 l-548 0
0 -142 c1 -158 9 -207 46 -283 61 -120 157 -207 282 -256 47 -18 83 -23 215
-27 l157 -4 0 -338 0 -338 -77 -26 c-274 -90 -655 -93 -908 -6 -87 30 -211 95
-284 149 -207 154 -351 408 -396 696 -22 147 -27 253 -15 372 56 589 462 1001
1016 1030 201 10 391 -24 564 -102 187 -84 331 -87 482 -8 72 38 119 82 296
283 l111 125 -42 38 c-69 61 -245 175 -352 227 -324 158 -800 247 -1175 219z"/>
<path d="M359 3761 c-160 -52 -274 -166 -328 -328 -21 -62 -21 -72 -21 -1485
0 -1156 3 -1432 14 -1473 48 -180 209 -331 390 -364 95 -17 1137 -14 1307 4
586 62 963 301 1100 699 74 213 76 463 6 664 -91 262 -337 469 -638 538 -39 9
-67 19 -62 23 4 4 38 20 76 35 258 107 438 306 499 554 31 122 30 320 -1 447
-76 314 -313 534 -686 639 -208 59 -205 59 -930 62 -627 3 -674 2 -726 -15z
m1223 -709 c136 -37 209 -87 256 -176 25 -46 27 -61 27 -161 0 -100 -3 -115
-28 -166 -31 -63 -103 -136 -166 -169 -101 -51 -169 -59 -499 -60 l-307 -1 -3
381 -2 382 322 -4 c289 -4 331 -7 400 -26z m91 -1420 c210 -58 306 -165 315
-354 7 -130 -20 -208 -98 -291 -72 -77 -156 -120 -292 -148 -79 -16 -140 -19
-413 -19 l-320 -1 -3 413 c-1 227 -1 417 2 423 2 7 128 8 367 4 331 -5 371 -8
442 -27z"/>
<path d="M4628 3761 c-107 -35 -199 -102 -261 -193 -25 -36 -97 -211 -227
-548 -105 -272 -213 -551 -240 -620 -61 -157 -257 -665 -303 -785 -18 -49
-125 -326 -237 -615 -279 -723 -340 -882 -340 -892 0 -4 148 -8 328 -8 296 0
337 2 407 20 43 11 97 31 121 45 64 38 145 117 181 176 32 55 46 93 151 419
69 213 275 848 364 1120 33 102 82 255 110 340 114 353 164 494 173 497 6 2
38 -81 72 -184 64 -197 484 -1481 605 -1853 91 -281 103 -311 154 -381 69 -94
173 -159 293 -185 79 -16 731 -21 731 -4 0 9 -188 510 -530 1410 -169 443
-564 1488 -679 1795 -41 108 -87 213 -108 243 -71 104 -185 186 -294 211 -24
6 -127 10 -229 10 -151 0 -196 -3 -242 -18z"/>
</g>
</svg>
